# Blender v2.78 (sub 0) OBJ File: ''
# www.blender.org
mtllib house.mtl
o Cube
v 2.618704 -0.089141 -3.788264
v 2.618704 -0.089141 3.788264
v -2.618705 -0.089141 3.788263
v -2.618703 -0.089141 -3.788265
v 2.618706 3.697624 -3.788262
v 2.618703 3.697624 3.788266
v -2.618705 3.697624 3.788263
v -2.618704 3.697624 -3.788264
v 3.437389 3.697624 -4.972583
v 3.437385 3.697624 4.972589
v -3.437387 3.697624 -4.972587
v -3.437389 3.697624 4.972584
v 0.883071 6.079987 -1.277465
v 0.883070 6.079987 1.277468
v -0.883071 6.079987 -1.277466
v -0.883072 6.079987 1.277467
v 2.618704 -0.089141 0.985771
v 2.618704 -0.089141 2.373860
v 2.618703 2.406814 2.385394
v 2.618702 2.418235 1.010306
v 1.991691 -0.089141 0.985771
v 1.991691 -0.089141 2.373860
v 1.991689 2.406813 2.385394
v 1.991688 2.418234 1.010306
v 2.618703 2.421697 -0.218432
v 2.618704 1.104894 -0.217493
v 2.618703 1.093901 -1.917489
v 2.618704 2.433243 -1.873152
v 1.897986 2.421697 -0.218432
v 1.897987 1.104894 -0.217493
v 1.897986 1.093901 -1.917489
v 1.897987 2.433243 -1.873152
v 0.948210 2.681937 -3.788262
v 0.992517 0.995605 -3.788265
v -0.974912 1.027158 -3.788265
v -0.955225 2.678725 -3.788262
v 0.948210 2.681937 -3.112514
v 0.992517 0.995604 -3.112516
v -0.974912 1.027157 -3.112516
v -0.955225 2.678724 -3.112514
v -2.618704 2.741793 -2.699873
v -2.618703 1.184536 -2.716614
v -2.618704 1.188927 -1.087777
v -2.618703 2.743830 -1.100432
v -2.032233 2.741793 -2.699873
v -2.032233 1.184536 -2.716614
v -2.032233 1.188927 -1.087778
v -2.032232 2.743830 -1.100433
v -2.618703 2.701073 0.676096
v -2.618706 1.245843 0.724112
v -2.618704 1.259633 2.521322
v -2.618704 2.698849 2.400936
v -2.137818 2.701072 0.676096
v -2.137820 1.245843 0.724112
v -2.137819 1.259633 2.521322
v -2.137819 2.698848 2.400936
v -1.004040 2.750986 3.788264
v -1.013303 1.147307 3.788262
v 0.953071 1.169724 3.788264
v 0.900873 2.785263 3.788265
v -1.004039 2.750987 3.107196
v -1.013302 1.147308 3.107194
v 0.953072 1.169725 3.107196
v 0.900874 2.785264 3.107198
vt -1.4654 0.6563
vt -0.2647 0.3922
vt -1.4654 0.9156
vt -1.2777 -1.2442
vt -1.4654 0.3922
vt -1.4654 -1.4654
vt 1.9299 0.2992
vt 1.6867 0.8414
vt 1.6867 -0.0502
vt 1.6867 -0.0502
vt 1.6867 -1.4654
vt 1.8743 -0.5144
vt 0.9080 0.3922
vt 1.1129 1.2260
vt 0.9080 1.8073
vt 0.6991 1.3559
vt 0.6985 0.8416
vt 0.1107 0.3922
vt 1.0996 -0.2977
vt 1.6867 0.3922
vt 0.1107 -1.4654
vt -0.0770 -1.2442
vt -0.0770 0.1710
vt -1.2777 0.1710
vt 0.1107 0.3922
vt 1.0996 -0.7749
vt 0.6947 -0.2977
vt 0.6947 -0.7749
vt 1.6867 -1.4654
vt 0.1107 -1.4654
vt -0.9224 2.1319
vt -0.7787 2.3887
vt -0.9224 2.3887
vt -0.0447 2.0628
vt -0.2647 1.4571
vt -0.0447 1.4551
vt 0.6748 2.3841
vt 0.8185 2.1248
vt 0.8185 2.3841
vt -0.0447 1.4551
vt 0.0990 2.0628
vt -0.0447 2.0628
vt -0.5093 2.4122
vt -0.6530 1.8073
vt -0.5093 1.8073
vt -0.9153 1.8073
vt -0.6530 2.1294
vt -0.9224 2.1319
vt 2.2054 0.3074
vt 2.4654 -0.0502
vt 2.2030 0.6165
vt 0.9080 1.8073
vt 1.0732 2.1163
vt 0.9080 2.1163
vt 0.6748 1.8073
vt 0.8400 2.1248
vt 0.6748 2.1248
vt 0.5096 1.8073
vt 0.3444 2.1319
vt 0.3444 1.8073
vt 0.6748 1.8073
vt 0.5096 2.1264
vt 0.5096 1.8073
vt 0.0814 0.9238
vt -0.2647 0.4096
vt 0.0819 0.3922
vt 0.1293 0.3922
vt 0.3524 1.3679
vt 0.1293 1.8073
vt 1.5563 2.2076
vt 1.4492 1.8073
vt 1.5563 1.8073
vt 1.3421 2.2161
vt 1.4492 1.8073
vt 1.4492 2.2161
vt 0.2373 1.8073
vt 0.3444 2.3216
vt 0.2373 2.3216
vt -0.2943 2.3389
vt -0.4014 1.8073
vt -0.2943 1.8073
vt -1.1806 2.1847
vt -0.9262 1.8073
vt -0.9224 2.1847
vt -0.1303 2.0628
vt -0.2647 2.3616
vt -0.2647 2.0628
vt 1.6867 0.3922
vt 1.4239 0.8965
vt 1.4248 0.5923
vt -0.0354 2.3671
vt 0.0990 2.0628
vt 0.0990 2.3671
vt 1.3421 2.1841
vt 1.2077 1.8073
vt 1.3421 1.8073
vt 1.2077 2.1847
vt 1.0732 1.8073
vt 1.2077 1.8073
vt -1.4538 1.8160
vt -1.1806 2.1601
vt -1.4654 2.1653
vt 1.6867 1.7175
vt 1.7969 1.3649
vt 1.7969 1.7175
vt 1.4122 1.2350
vt 1.6867 1.8073
vt 1.4093 1.5706
vt -0.6685 2.4540
vt -0.7787 2.1319
vt -0.6685 2.1319
vt 0.5096 2.1264
vt 0.6198 2.4621
vt 0.5096 2.4621
vt 0.9080 2.4654
vt 1.0182 2.1163
vt 1.0182 2.4654
vt 0.0676 1.4551
vt -0.2621 0.9303
vt 0.0676 0.9238
vt 1.5563 1.8073
vt 1.6642 2.1989
vt 1.5563 2.1989
vt 2.2111 -1.0316
vt 2.4654 -0.0502
vt 2.2065 -0.5003
vt 1.6642 1.8073
vt 1.7721 2.1960
vt 1.6642 2.1960
vt 0.1293 2.3220
vt 0.2373 1.8073
vt 0.2373 2.3220
vt -0.5093 1.8073
vt -0.4014 2.3386
vt -0.5093 2.3386
vt -0.2647 1.8073
vt -1.4654 1.8073
vt -1.4654 0.3922
vt 1.9322 0.6167
vt 2.4654 -1.4654
vt 1.8813 -1.0291
vt 1.1045 0.5954
vt 1.1134 1.5482
vt 1.1041 0.8942
vt 0.9080 1.8073
vt 0.3589 0.8363
vt -0.7787 2.1319
vt -0.2627 2.0620
vt 0.6748 2.1248
vt 0.0990 1.4551
vt -0.6530 2.4122
vt -0.6530 1.8102
vt 2.2023 0.8460
vt 1.6867 1.3649
vt 1.6867 1.1007
vt 2.1999 1.1028
vt 2.4654 1.3649
vt 1.0732 1.8073
vt 0.8400 1.8073
vt 0.5096 2.1319
vt 0.6748 2.1264
vt -0.2582 0.9238
vt 1.4492 2.2076
vt 1.3421 1.8073
vt 0.3444 1.8073
vt -0.4014 2.3389
vt -1.1797 1.8078
vt -0.1303 2.3616
vt -0.0354 2.0628
vt 1.2077 2.1841
vt 1.0732 2.1847
vt -1.1806 1.8073
vt 1.6867 1.3649
vt -0.7787 2.4540
vt 0.6198 2.1264
vt 0.9080 2.1163
vt -0.2647 1.4450
vt 1.6642 1.8073
vt 1.7721 1.8073
vt 0.1293 1.8073
vt -0.4014 1.8073
vn 0.0000 -1.0000 0.0000
vn 1.0000 0.0000 0.0000
vn -0.0000 0.0000 1.0000
vn -1.0000 -0.0000 -0.0000
vn 0.0000 -0.0000 -1.0000
vn -0.6821 0.7313 -0.0000
vn 0.0000 1.0000 0.0000
vn 0.0000 0.8405 -0.5419
vn -0.0000 0.8405 0.5419
vn 0.6821 0.7313 0.0000
vn 0.0000 -1.0000 -0.0083
vn 0.0000 -0.0098 1.0000
vn 0.0000 0.0046 -1.0000
vn 0.0000 -1.0000 -0.0070
vn 0.0000 1.0000 -0.0065
vn 0.0000 -0.0331 0.9995
vn 0.0000 -0.0007 -1.0000
vn 0.9999 -0.0119 0.0000
vn -0.9997 -0.0263 -0.0000
vn 0.0017 -1.0000 -0.0000
vn 0.0160 0.9999 0.0000
vn 0.0000 -1.0000 0.0013
vn 0.0000 1.0000 -0.0027
vn 0.0000 -0.0081 -1.0000
vn 0.0000 -0.0108 0.9999
vn 0.0000 0.0330 0.9995
vn -0.0000 -1.0000 -0.0013
vn 0.0000 1.0000 -0.0077
vn 0.0000 -0.0834 -0.9965
vn -0.9995 -0.0323 -0.0000
vn 1.0000 -0.0058 0.0000
vn 0.0180 -0.9998 -0.0000
vn -0.0114 0.9999 0.0000
usemtl Material
s off
f 18/1/1 3/2/1 17/3/1
f 8/4/1 12/5/1 11/6/1
f 27/7/2 17/8/2 1/9/2
f 6/10/3 7/11/3 60/12/3
f 8/13/4 49/14/4 7/15/4
f 33/16/5 36/17/5 8/13/5
f 12/18/6 15/19/6 11/20/6
f 8/4/1 9/21/1 5/22/1
f 6/23/1 12/5/1 7/24/1
f 6/23/1 9/21/1 10/25/1
f 13/26/7 16/27/7 14/28/7
f 9/29/8 15/19/8 13/26/8
f 12/18/9 14/28/9 16/27/9
f 9/29/10 14/28/10 10/30/10
f 19/31/11 24/32/11 20/33/11
f 24/34/2 22/35/2 21/36/2
f 18/37/7 21/38/7 22/39/7
f 20/40/12 21/41/12 17/42/12
f 18/43/13 23/44/13 19/45/13
f 32/46/2 30/47/2 31/48/2
f 28/49/2 5/50/2 25/51/2
f 25/52/14 32/53/14 28/54/14
f 27/55/15 30/56/15 26/57/15
f 27/58/16 32/59/16 31/60/16
f 25/61/17 30/62/17 29/63/17
f 39/64/5 37/65/5 38/66/5
f 4/67/5 34/68/5 1/69/5
f 36/70/18 39/71/18 35/72/18
f 33/73/19 38/74/19 37/75/19
f 33/76/20 40/77/20 36/78/20
f 35/79/21 38/80/21 34/81/21
f 47/82/4 45/83/4 46/84/4
f 44/85/22 45/86/22 48/87/22
f 4/88/4 43/89/4 42/90/4
f 42/91/23 47/92/23 46/93/23
f 44/94/24 47/95/24 43/96/24
f 42/97/25 45/98/25 41/99/25
f 56/100/4 54/101/4 55/102/4
f 49/103/26 54/104/26 53/105/26
f 50/106/4 3/107/4 51/108/4
f 49/109/27 56/110/27 52/111/27
f 51/112/28 54/113/28 50/114/28
f 51/115/29 56/116/29 55/117/29
f 63/118/3 61/119/3 62/120/3
f 60/121/30 63/122/30 59/123/30
f 58/124/3 2/125/3 59/126/3
f 58/127/31 61/128/31 57/129/31
f 60/130/32 61/131/32 64/132/32
f 59/133/33 62/134/33 58/135/33
f 4/136/1 1/137/1 17/3/1
f 18/1/1 2/138/1 3/2/1
f 4/136/1 17/3/1 3/2/1
f 8/4/1 7/24/1 12/5/1
f 27/7/2 26/139/2 17/8/2
f 59/126/3 2/125/3 6/10/3
f 7/11/3 3/140/3 58/124/3
f 7/11/3 58/124/3 57/141/3
f 60/12/3 59/126/3 6/10/3
f 7/11/3 57/141/3 60/12/3
f 51/108/4 3/107/4 7/15/4
f 8/13/4 4/88/4 42/90/4
f 8/13/4 42/90/4 41/142/4
f 52/143/4 51/108/4 7/15/4
f 44/144/4 49/14/4 8/13/4
f 8/13/4 41/142/4 44/144/4
f 52/143/4 7/15/4 49/14/4
f 5/145/5 1/69/5 34/68/5
f 5/145/5 34/68/5 33/16/5
f 35/146/5 4/67/5 8/13/5
f 5/145/5 33/16/5 8/13/5
f 36/17/5 35/146/5 8/13/5
f 12/18/6 16/27/6 15/19/6
f 8/4/1 11/6/1 9/21/1
f 6/23/1 10/25/1 12/5/1
f 6/23/1 5/22/1 9/21/1
f 13/26/7 15/19/7 16/27/7
f 9/29/8 11/20/8 15/19/8
f 12/18/9 10/30/9 14/28/9
f 9/29/10 13/26/10 14/28/10
f 19/31/11 23/147/11 24/32/11
f 24/34/2 23/148/2 22/35/2
f 18/37/7 17/149/7 21/38/7
f 20/40/12 24/150/12 21/41/12
f 18/43/13 22/151/13 23/44/13
f 32/46/2 29/152/2 30/47/2
f 20/153/2 17/8/2 26/139/2
f 20/153/2 26/139/2 25/51/2
f 2/154/2 18/155/2 19/156/2
f 20/153/2 25/51/2 6/157/2
f 6/157/2 2/154/2 19/156/2
f 6/157/2 19/156/2 20/153/2
f 27/7/2 1/9/2 5/50/2
f 6/157/2 25/51/2 5/50/2
f 28/49/2 27/7/2 5/50/2
f 25/52/14 29/158/14 32/53/14
f 27/55/15 31/159/15 30/56/15
f 27/58/16 28/160/16 32/59/16
f 25/61/17 26/161/17 30/62/17
f 39/64/5 40/162/5 37/65/5
f 4/67/5 35/146/5 34/68/5
f 36/70/18 40/163/18 39/71/18
f 33/73/19 34/164/19 38/74/19
f 33/76/20 37/165/20 40/77/20
f 35/79/21 39/166/21 38/80/21
f 47/82/4 48/167/4 45/83/4
f 44/85/22 41/168/22 45/86/22
f 4/88/4 3/107/4 43/89/4
f 42/91/23 43/169/23 47/92/23
f 44/94/24 48/170/24 47/95/24
f 42/97/25 46/171/25 45/98/25
f 56/100/4 53/172/4 54/101/4
f 49/103/26 50/173/26 54/104/26
f 50/106/4 49/14/4 43/89/4
f 43/89/4 3/107/4 50/106/4
f 49/14/4 44/144/4 43/89/4
f 49/109/27 53/174/27 56/110/27
f 51/112/28 55/175/28 54/113/28
f 51/115/29 52/176/29 56/116/29
f 63/118/3 64/177/3 61/119/3
f 60/121/30 64/178/30 63/122/30
f 58/124/3 3/140/3 2/125/3
f 58/127/31 62/179/31 61/128/31
f 60/130/32 57/180/32 61/131/32
f 59/133/33 63/181/33 62/134/33
