# Blender v2.78 (sub 0) OBJ File: ''
# www.blender.org
mtllib texture-building.mtl
o Cube
v 3.523233 37.414852 -3.523233
v 3.523233 37.414852 3.523233
v -3.523233 37.414852 3.523232
v -3.523232 37.414852 -3.523234
v 3.523235 65.583054 -3.523231
v 3.523231 65.583054 3.523235
v -3.523234 65.583054 3.523232
v -3.523233 65.583054 -3.523233
v 5.048401 -0.278990 -5.048400
v 5.048401 -0.278990 5.048401
v -5.048401 -0.278990 5.048400
v -5.048399 -0.278990 -5.048403
v 5.048403 40.082909 -5.048398
v 5.048398 40.082909 5.048404
v -5.048403 40.082909 5.048399
v -5.048400 40.082909 -5.048401
vt 3.4540 1.4577
vt 5.8824 1.4577
vt 5.8824 3.6701
vt 3.4540 3.6701
vt 1.0256 3.6701
vt 1.0256 5.8824
vt -1.4028 5.8824
vt -1.4028 3.6701
vt 1.0256 3.6701
vt -1.4028 3.6701
vt -1.4028 1.4577
vt 1.0256 1.4577
vt 3.4540 5.8824
vt 1.0256 5.8824
vt 1.0256 3.6701
vt 3.4540 3.6701
vt 2.0768 0.5000
vt -0.3516 0.5000
vt -0.3516 -1.7123
vt 2.0768 -1.7123
vt 1.0256 1.4577
vt 1.0256 3.6701
vt 2.0768 -1.7123
vt 5.5565 -1.7123
vt 5.5565 1.4577
vt 2.0768 1.4577
vt 5.5565 -4.8824
vt 5.5565 -1.7123
vt 2.0768 -1.7124
vt 2.0768 -4.8824
vt -1.4028 -1.7124
vt -4.8824 -1.7123
vt -4.8824 -4.8824
vt -1.4028 -4.8824
vt -1.4028 -1.7123
vt -1.4028 -4.8824
vt 2.0768 -4.8824
vt 2.0768 -1.7124
vt -1.4028 4.6278
vt -4.8824 4.6278
vt -4.8824 1.4577
vt -1.4028 1.4577
vt -1.4028 -1.7123
vn 0.0000 -1.0000 -0.0000
vn 0.0000 1.0000 0.0000
vn 1.0000 0.0000 0.0000
vn -0.0000 -0.0000 1.0000
vn -1.0000 -0.0000 -0.0000
vn 0.0000 0.0000 -1.0000
usemtl Material
s off
f 1/1/1 2/2/1 3/3/1 4/4/1
f 5/5/2 8/6/2 7/7/2 6/8/2
f 1/9/3 5/10/3 6/11/3 2/12/3
f 2/13/4 6/14/4 7/15/4 3/16/4
f 3/17/5 7/18/5 8/19/5 4/20/5
f 5/21/6 1/1/6 4/4/6 8/22/6
f 9/23/1 10/24/1 11/25/1 12/26/1
f 13/27/2 16/28/2 15/29/2 14/30/2
f 9/31/3 13/32/3 14/33/3 10/34/3
f 10/35/4 14/36/4 15/37/4 11/38/4
f 11/39/5 15/40/5 16/41/5 12/42/5
f 13/32/6 9/43/6 12/42/6 16/41/6
