# Blender v2.78 (sub 0) OBJ File: ''
# www.blender.org
mtllib tree-trunk.mtl
o Plane
v 0.475128 1.537974 0.435805
v -0.386437 1.456969 0.406016
v 0.463869 1.522047 -0.425248
v 0.421823 0.000000 0.492254
v -0.418921 1.441089 -0.337435
v -0.518176 0.798382 -0.439805
v 0.447852 0.672825 -0.442820
v -0.564678 0.000000 0.417633
v -0.561861 0.779177 0.372746
v 0.368684 0.654382 0.495499
v 0.447748 0.000000 -0.491464
v -0.568394 0.000000 -0.432803
v 0.415443 2.329960 0.334186
v -0.368707 2.155287 0.418094
v 0.302598 2.272871 -0.459243
v -0.486764 2.101430 -0.264026
v 0.093064 3.418011 0.163640
v -0.473648 3.169727 0.329858
v -0.057037 3.276231 -0.439230
v -0.618090 3.040878 -0.185728
v -0.350573 4.083872 0.081131
v -0.845567 3.973016 0.134560
v -0.422163 4.047401 -0.419816
v -0.920397 3.938630 -0.296098
v -0.563778 4.520511 0.081143
v -0.997140 4.580606 0.026640
v -0.523022 4.580176 -0.351411
v -0.973443 4.633657 -0.347882
v -0.562832 5.221850 0.195044
v -0.905295 5.380045 0.075358
v -0.429499 5.282418 -0.170366
v -0.799346 5.436468 -0.242974
v -0.426992 5.998259 0.432954
v -0.588815 6.306600 0.244884
v -0.146253 6.002116 0.157017
v -0.350953 6.318078 0.001916
v 0.087097 6.696505 0.901464
v 0.057922 6.910908 0.774616
v 0.292516 6.658160 0.765170
v 0.234327 6.883503 0.653708
v 1.004797 7.458941 1.908834
v 0.911251 7.562497 1.845975
v 1.093634 7.475909 1.786369
v 0.985401 7.579870 1.738687
v -0.181913 6.481383 0.190166
v -0.394842 6.487848 0.403765
v -0.892226 7.038901 -0.016717
v -0.752913 6.979595 -0.283336
v -0.571410 7.171156 -0.219970
v -0.698488 7.237501 0.011043
v -1.395860 7.768969 -0.480947
v -1.360635 7.655107 -0.674837
v -1.234828 7.802435 -0.730060
v -1.271018 7.911531 -0.564182
v -1.931125 8.109410 -0.847222
v -1.908431 8.036055 -0.972139
v -1.827378 8.130972 -1.007717
v -1.850694 8.201259 -0.900847
v -0.170301 3.813299 0.114659
v -0.685609 3.627531 0.218555
v -0.212293 3.847694 1.393709
v -0.614209 3.588574 1.612324
v -0.487265 4.122988 1.346875
v -0.863035 3.914307 1.503836
v -0.170389 4.136193 2.053595
v -0.415591 4.024866 2.322933
v -0.387477 4.304476 1.981901
v -0.624332 4.209085 2.193236
v 0.005489 4.814105 2.656902
v -0.136462 4.749656 2.812826
v -0.120186 4.911527 2.615397
v -0.257305 4.856303 2.737743
v -0.474024 4.948090 -0.256559
v -0.896874 4.986742 -0.301742
v -0.515490 5.119175 -1.254164
v -0.869564 5.163470 -1.204277
v -0.458603 5.379908 -1.107948
v -0.794953 5.423014 -1.100487
v -0.107570 5.545358 -1.959301
v -0.367012 5.621042 -2.036767
v -0.079215 5.750674 -1.843464
v -0.313226 5.820408 -1.945544
v 0.780487 5.963958 -2.725618
v 0.674974 5.966340 -2.795794
v 0.757506 6.060498 -2.685499
v 0.666553 6.062208 -2.762699
vn -0.9789 0.2043 -0.0066
vn 0.9978 0.0377 0.0549
vn -0.1008 0.0254 0.9946
vn 0.9969 -0.0695 0.0375
vn -0.9933 -0.0434 0.1070
vn -0.0840 0.0320 0.9960
vn 0.0000 -1.0000 0.0000
vn -0.0292 0.0293 -0.9991
vn -0.9992 0.0328 -0.0236
vn -0.0469 0.0836 -0.9954
vn 0.9326 0.2885 -0.2167
vn 0.9877 0.1344 -0.0800
vn -0.1670 0.0004 -0.9860
vn 0.0234 0.0606 0.9979
vn -0.2830 -0.1647 -0.9449
vn 0.1351 0.1480 0.9797
vn -0.3072 -0.0295 -0.9512
vn -0.9664 -0.1157 0.2295
vn -0.1328 -0.0032 -0.9911
vn -0.9117 -0.3137 0.2654
vn 0.8493 0.4672 -0.2460
vn -0.4570 0.8412 -0.2890
vn 0.9747 -0.1069 0.1965
vn -0.9872 -0.1478 0.0593
vn 0.9506 0.3096 -0.0237
vn -0.0066 0.1005 0.9949
vn 0.4452 0.1140 -0.8881
vn -0.2421 -0.0897 0.9661
vn 0.0716 0.8806 0.4684
vn -0.9722 0.1761 -0.1541
vn -0.7008 -0.5383 -0.4681
vn -0.7908 0.4335 -0.4320
vn 0.7884 -0.3981 0.4690
vn -0.5545 -0.0514 0.8306
vn 0.3014 -0.8590 0.4138
vn 0.4134 -0.7269 0.5484
vn -0.7297 0.1369 0.6699
vn 0.7542 0.0436 -0.6552
vn 0.4991 0.7322 0.4635
vn -0.7818 0.0680 0.6198
vn 0.7717 0.0855 -0.6302
vn -0.2820 0.8937 -0.3489
vn -0.2929 0.4137 0.8620
vn -0.3301 0.8202 -0.4673
vn -0.5406 0.1445 0.8288
vn 0.6922 0.5759 0.4350
vn 0.6132 -0.0466 -0.7885
vn 0.5755 0.7353 -0.3580
vn -0.7680 -0.6384 -0.0511
vn 0.7277 0.6859 -0.0038
vn 0.3402 -0.2870 -0.8955
vn -0.7729 0.4591 -0.4380
vn 0.1547 -0.4599 -0.8744
vn -0.1580 0.5974 0.7862
vn -0.6482 -0.7022 0.2946
vn 0.6762 0.6657 -0.3156
vn 0.0832 0.2309 0.9694
vn 0.7792 0.6268 0.0087
vn -0.8653 -0.5004 0.0303
vn 0.5404 -0.7634 0.3537
vn -0.6539 -0.2344 0.7194
vn -0.7540 -0.4554 0.4734
vn 0.6258 -0.7296 0.2760
vn -0.5179 0.8385 -0.1692
vn 0.3064 0.7236 0.6185
vn 0.7150 -0.5591 0.4198
vn -0.6213 0.6800 -0.3894
vn 0.5766 0.4546 -0.6789
vn 0.0940 0.8743 0.4761
vn 0.1803 0.1471 -0.9725
vn 0.9878 -0.1413 -0.0653
vn -0.1370 -0.8427 -0.5207
vn -0.9717 0.2357 0.0167
vn -0.6348 0.3807 -0.6724
vn 0.8926 -0.3337 0.3032
vn -0.8696 0.3782 -0.3175
vn -0.1359 -0.8221 -0.5530
vn 0.5618 0.3727 -0.7386
vn -0.0067 -0.8907 -0.4545
vn 0.0214 0.9415 0.3364
vn 0.7145 -0.3311 0.6163
usemtl None
s off
f 6//1 9//1 2//1 5//1
f 4//2 11//2 7//2 10//2
f 8//3 4//3 10//3 9//3
f 10//4 7//4 3//4 1//4
f 5//5 2//5 14//5 16//5
f 9//6 10//6 1//6 2//6
f 8//7 12//7 11//7 4//7
f 11//8 12//8 6//8 7//8
f 12//9 8//9 9//9 6//9
f 7//10 6//10 5//10 3//10
f 13//11 15//11 19//11 17//11
f 1//12 3//12 15//12 13//12
f 3//13 5//13 16//13 15//13
f 2//14 1//14 13//14 14//14
f 19//15 20//15 24//15 23//15
f 14//16 13//16 17//16 18//16
f 15//17 16//17 20//17 19//17
f 16//18 14//18 18//18 20//18
f 23//19 24//19 28//19 27//19
f 20//20 18//20 60//20 22//20 24//20
f 17//21 19//21 23//21 21//21 59//21
f 59//22 60//22 64//22 63//22
f 25//23 27//23 73//23 31//23 29//23
f 24//24 22//24 26//24 28//24
f 21//25 23//25 27//25 25//25
f 22//26 21//26 25//26 26//26
f 31//27 32//27 36//27 35//27
f 26//28 25//28 29//28 30//28
f 74//29 73//29 77//29 78//29
f 28//30 26//30 30//30 32//30 74//30
f 36//31 34//31 47//31 48//31
f 32//32 30//32 34//32 36//32
f 29//33 31//33 35//33 33//33
f 30//34 29//34 33//34 34//34
f 37//35 39//35 43//35 41//35
f 33//36 35//36 39//36 37//36
f 34//37 33//37 37//37 38//37 46//37
f 35//38 36//38 45//38 40//38 39//38
f 42//39 41//39 43//39 44//39
f 38//40 37//40 41//40 42//40
f 39//41 40//41 44//41 43//41
f 40//42 38//42 42//42 44//42
f 47//43 50//43 54//43 51//43
f 45//44 46//44 38//44 40//44
f 34//45 46//45 50//45 47//45
f 46//46 45//46 49//46 50//46
f 45//47 36//47 48//47 49//47
f 54//48 53//48 57//48 58//48
f 48//49 47//49 51//49 52//49
f 50//50 49//50 53//50 54//50
f 49//51 48//51 52//51 53//51
f 56//52 55//52 58//52 57//52
f 53//53 52//53 56//53 57//53
f 51//54 54//54 58//54 55//54
f 52//55 51//55 55//55 56//55
f 61//56 63//56 67//56 65//56
f 60//57 59//57 21//57 22//57
f 17//58 59//58 63//58 61//58
f 60//59 18//59 62//59 64//59
f 18//60 17//60 61//60 62//60
f 68//61 66//61 70//61 72//61
f 64//62 62//62 66//62 68//62
f 62//63 61//63 65//63 66//63
f 63//64 64//64 68//64 67//64
f 70//65 69//65 71//65 72//65
f 66//66 65//66 69//66 70//66
f 67//67 68//67 72//67 71//67
f 65//68 67//68 71//68 69//68
f 78//69 77//69 81//69 82//69
f 73//70 74//70 32//70 31//70
f 73//71 27//71 75//71 77//71
f 27//72 28//72 76//72 75//72
f 28//73 74//73 78//73 76//73
f 80//74 82//74 86//74 84//74
f 77//75 75//75 79//75 81//75
f 76//76 78//76 82//76 80//76
f 75//77 76//77 80//77 79//77
f 83//78 84//78 86//78 85//78
f 79//79 80//79 84//79 83//79
f 82//80 81//80 85//80 86//80
f 81//81 79//81 83//81 85//81
